<svg width="230" height="83" viewBox="0 0 230 83" fill="none" xmlns="http://www.w3.org/2000/svg">
<g id="bg &#38; shapes">
<mask id="mask0_7099_535" style="mask-type:alpha" maskUnits="userSpaceOnUse" x="0" y="0" width="230" height="83">
<rect id="Rectangle 4339" width="230" height="83" rx="8" fill="white"/>
</mask>
<g mask="url(#mask0_7099_535)">
<rect id="Rectangle 4340" width="230" height="83" rx="8" fill="white"/>
<g id="Dotted Shape">
<circle id="Ellipse 1" cx="210.706" cy="24.3533" r="0.646687" transform="rotate(-90 210.706 24.3533)" fill="#3056D3"/>
<circle id="Ellipse 6" cx="216.397" cy="24.3533" r="0.646687" transform="rotate(-90 216.397 24.3533)" fill="#3056D3"/>
<circle id="Ellipse 11" cx="222.088" cy="24.3533" r="0.646687" transform="rotate(-90 222.088 24.3533)" fill="#3056D3"/>
<circle id="Ellipse 16" cx="227.779" cy="24.3533" r="0.646687" transform="rotate(-90 227.779 24.3533)" fill="#3056D3"/>
<circle id="Ellipse 2" cx="210.706" cy="18.6624" r="0.646687" transform="rotate(-90 210.706 18.6624)" fill="#3056D3"/>
<circle id="Ellipse 7" cx="216.397" cy="18.6624" r="0.646687" transform="rotate(-90 216.397 18.6624)" fill="#3056D3"/>
<circle id="Ellipse 12" cx="222.088" cy="18.6624" r="0.646687" transform="rotate(-90 222.088 18.6624)" fill="#3056D3"/>
<circle id="Ellipse 17" cx="227.779" cy="18.6624" r="0.646687" transform="rotate(-90 227.779 18.6624)" fill="#3056D3"/>
<circle id="Ellipse 3" cx="210.706" cy="12.9715" r="0.646687" transform="rotate(-90 210.706 12.9715)" fill="#3056D3"/>
<circle id="Ellipse 8" cx="216.397" cy="12.9715" r="0.646687" transform="rotate(-90 216.397 12.9715)" fill="#3056D3"/>
<circle id="Ellipse 13" cx="222.088" cy="12.9715" r="0.646687" transform="rotate(-90 222.088 12.9715)" fill="#3056D3"/>
<circle id="Ellipse 18" cx="227.779" cy="12.9715" r="0.646687" transform="rotate(-90 227.779 12.9715)" fill="#3056D3"/>
<circle id="Ellipse 4" cx="210.706" cy="7.28056" r="0.646687" transform="rotate(-90 210.706 7.28056)" fill="#3056D3"/>
<circle id="Ellipse 9" cx="216.397" cy="7.28056" r="0.646687" transform="rotate(-90 216.397 7.28056)" fill="#3056D3"/>
<circle id="Ellipse 14" cx="222.088" cy="7.28056" r="0.646687" transform="rotate(-90 222.088 7.28056)" fill="#3056D3"/>
<circle id="Ellipse 19" cx="227.779" cy="7.28056" r="0.646687" transform="rotate(-90 227.779 7.28056)" fill="#3056D3"/>
<circle id="Ellipse 5" cx="210.706" cy="1.58964" r="0.646687" transform="rotate(-90 210.706 1.58964)" fill="#3056D3"/>
<circle id="Ellipse 10" cx="216.397" cy="1.58964" r="0.646687" transform="rotate(-90 216.397 1.58964)" fill="#3056D3"/>
<circle id="Ellipse 15" cx="222.088" cy="1.58964" r="0.646687" transform="rotate(-90 222.088 1.58964)" fill="#3056D3"/>
<circle id="Ellipse 20" cx="227.779" cy="1.58964" r="0.646687" transform="rotate(-90 227.779 1.58964)" fill="#3056D3"/>
</g>
<circle id="Ellipse 2706" cx="16" cy="98" r="45" fill="#13C296" fill-opacity="0.11"/>
</g>
</g>
</svg>
